<svg width="25" height="30" viewBox="0 0 25 30" xmlns="http://www.w3.org/2000/svg">
    <path fill="#adadad" d="M5 22.5c0 .7.5 1.2 1.1 1.3h1.4v4.4c.1 1 1 1.8 2 1.7.9-.1 1.7-.8 1.7-1.7v-4.4h2.5v4.4c-.1 1 .7 1.9 1.7 2 1 .1 1.9-.7 2-1.7v-4.7h1.2c.7 0 1.2-.5 1.2-1.1V10H5v12.5zM23.1 10c-1 0-1.9.8-1.9 1.9v8.8c.1 1 1 1.8 2 1.7.9-.1 1.7-.8 1.7-1.7v-8.8c.1-1.1-.8-1.9-1.8-1.9zM1.9 10c-1 0-1.8.8-1.9 1.8v8.8c0 1 .8 1.8 1.9 1.9 1 0 1.9-.8 1.9-1.9v-8.8c-.1-1-.9-1.8-1.9-1.8zM20 8.3c-.1-1.6-.7-3.1-1.7-4.3-.4-.5-.9-.9-1.4-1.3l1.6-1.6c.2-.2.2-.6 0-.9-.2-.2-.6-.2-.9 0L16 1.9l-.1.1c-1-.5-2.2-.8-3.4-.8-1.2 0-2.3.2-3.4.8v-.1L7.4.2c-.3-.2-.6-.2-.9 0-.2.2-.2.6 0 .8l1.6 1.7C6.3 4 5.1 6 5 8.3v.4h15v-.4zM9.4 6.5c-.5 0-.9-.5-.9-1 0-.4.4-.8.8-.8.5-.1 1 .3 1 .8s-.3 1-.8 1h-.1zm6.2 0c-.5 0-.9-.4-.9-.9s.4-.9.9-.9.9.4.9.9c.1.5-.4.9-.9.9z" />
</svg>
