<svg width="25" height="30" viewBox="0 0 25 30" xmlns="http://www.w3.org/2000/svg">
    <path fill="#adadad" d="M24.4 21.7c-2.3-1-3.8-3.2-3.8-5.7 0-2.2 1.2-4.2 3-5.4.1-.1.2-.2.1-.3-1.3-1.8-3.3-2.9-5.6-3h-.5c-1.2.1-2.4.4-3.5.9-.5.3-1.1.4-1.7.5-.6-.1-1.2-.3-1.7-.6-1-.4-2-.7-3.1-.8-2.6 0-5 1.4-6.3 3.7-2.5 4.4-.9 11.1 1.9 15.1C4.5 28.2 6 30 7.9 30H8c.8 0 1.5-.2 2.2-.6.8-.4 1.7-.6 2.6-.6s1.7.2 2.5.6c.7.4 1.6.6 2.4.6 2.2 0 3.5-2 4.7-3.7.9-1.3 1.6-2.8 2.1-4.3 0-.1 0-.3-.1-.3zM12.2 7.3h.3c1.7-.1 3.2-.9 4.3-2.2C18 3.7 18.5 2 18.4.2c0-.1-.1-.2-.3-.2-1.7.2-3.4 1-4.5 2.3-1.2 1.3-1.7 3-1.6 4.8 0 .1.1.2.2.2z" />
</svg>
