<svg width="35" height="30" viewBox="0 0 35 30" xmlns="http://www.w3.org/2000/svg" class="uk-text-primary el-image uk-svg">
    <path fill="#564aeb" d="M7.1 22.6L3 19.4l4.8-2-.7 5.2zm-1.2-2.8zM27.2 12l.6-5.2 4.2 3-4.8 2.2zm1.7-2.5z"></path>
    <path fill="none" stroke="#564aeb" stroke-width="1.5" d="M26.2 5.3C21.1.5 13 .7 8.2 5.8c-3 3.1-4.1 7.5-3.1 11.7.1.5.3 1.1.5 1.6m3 4.8c5 4.9 13.1 4.8 18-.2 3.1-3.2 4.4-7.8 3.2-12.2-.1-.5-.3-.9-.4-1.4m-11.3 2.1c1.4 1.5 1.4 3.9 0 5.4-1.5 1.5-3.9 1.4-5.4 0-2-1.9-.6-4.9-2-7.5 2.4-.7 5.6-.2 7.4 2.1zm.1-.4c1.7-.8 3.6-1.3 5.4-1.5 0 0 .7 5.4-1.3 7.3-1.3 1.5-3.5 1.7-5.1.5m-1.9-3.7c1.6 2.2 2.4 4.9 2.2 7.6"></path>
</svg>